<?xml version="1.0" standalone="no"?>
<!DOCTYPE svg PUBLIC "-//W3C//DTD SVG 20010904//EN"
 "http://www.w3.org/TR/2001/REC-SVG-20010904/DTD/svg10.dtd">
<svg version="1.0" xmlns="http://www.w3.org/2000/svg"
 width="1024.000000pt" height="1024.000000pt" viewBox="0 0 1024.000000 1024.000000"
 preserveAspectRatio="xMidYMid meet">
<metadata>
Created by potrace 1.11, written by Peter Selinger 2001-2013
</metadata>
<g transform="translate(0.000000,1024.000000) scale(0.100000,-0.100000)"
fill="#000000" stroke="none">
<path d="M5120 7685 l0 -2555 2555 0 2555 0 0 2555 0 2555 -2555 0 -2555 0 0
-2555z"/>
<path d="M4085 3243 c-566 -537 -1525 -1444 -2130 -2017 -605 -572 -1138
-1077 -1184 -1122 l-84 -81 4434 -6 c2438 -3 4435 -4 4437 -2 4 3 -4426 4199
-4437 4202 -3 1 -469 -437 -1036 -974z"/>
</g>
</svg>
